<svg xmlns="http://www.w3.org/2000/svg" viewBox="0 0 55.52 25.287">
  <path
    fill="var(--color, #a07b50)"
    stroke="#1F1C1D"
    stroke-width=".8"
    d="M47.948 24.887H7.385a.922.922 0 01-.872-.623L.45 6.58a.923.923 0 011.018-1.21.92.92 0 01.788.549c.75 1.702 3.416 7.197 6.527 7.197.038 0 .077 0 .117-.003 1.876-.083 4.81-2.248 8.136-12.085a.922.922 0 011.746 0c1.135 3.354 4.94 12.034 8.891 12.034h.032c1.873-.023 4.753-2.125 7.837-12.014a.922.922 0 01.88-.647h.01a.921.921 0 01.876.665c.943 3.247 4.286 11.75 8.387 12.104 2.396.198 5.052-2.514 7.675-7.87a.921.921 0 011.7.704l-6.25 18.261a.922.922 0 01-.872.623zM8.044 23.044h39.245L50.9 12.49c-1.746 1.848-3.518 2.672-5.367 2.517-4.541-.396-7.658-6.94-9.107-10.787-2.56 7.144-5.417 10.645-8.701 10.684h-.053c-4.59 0-8.133-7.036-9.738-10.917-2.739 7.227-5.678 10.82-8.953 10.967-1.68.065-3.142-.771-4.4-2.013l3.462 10.103z"
  />
</svg>
